# xmcd
#
# Track frame offsets: 
#        225
#        17078
#        28098
#        45122
#        59258
#        75969
#        91023
#        100866
#        122312
#        140429
#
# Disc length: 2068 seconds
#
# Revision: 1
# Processed by: cddbd v1.4PL0 Copyright (c) Steve Scherf et al.
# Submitted via: ExactAudioCopy v0.90b4
#
DISCID=6608110a
DTITLE=Terri Hendrix - Two Dollar Shoes
DYEAR=1996
DGENRE=Country
TTITLE0=Cathy's Corner
TTITLE1=Know What You Hold
TTITLE2=Last
TTITLE3=Eagle
TTITLE4=Somebody Like Me
TTITLE5=The Sister's Song
TTITLE6=Two Dollar Shoes
TTITLE7=Where The Crossroads End
TTITLE8=Stones
TTITLE9=Moon On The Water
EXTD=
EXTT0=
EXTT1=
EXTT2=
EXTT3=
EXTT4=
EXTT5=
EXTT6=
EXTT7=
EXTT8=
EXTT9=
PLAYORDER=
